<mxfile host="app.diagrams.net" modified="2023-04-05T05:09:45.178Z" agent="Mozilla/5.0 (Windows NT 10.0; Win64; x64) AppleWebKit/537.36 (KHTML, like Gecko) Chrome/111.0.0.0 Safari/537.36 Edg/111.0.1661.62" etag="NwlQS7GeZpa_h0VrSVBq" version="21.1.4" type="device">
  <diagram name="Page-1" id="ogtU3LzNdy-I8aaYnl3I">
    <mxGraphModel dx="880" dy="484" grid="1" gridSize="10" guides="1" tooltips="1" connect="1" arrows="1" fold="1" page="1" pageScale="1" pageWidth="850" pageHeight="1100" math="0" shadow="0">
      <root>
        <mxCell id="0" />
        <mxCell id="1" parent="0" />
        <mxCell id="Jfc9MSG-SvQLUjMFfGva-1" value="Login" style="ellipse;whiteSpace=wrap;html=1;" vertex="1" parent="1">
          <mxGeometry x="425" y="50" width="120" height="40" as="geometry" />
        </mxCell>
        <mxCell id="Jfc9MSG-SvQLUjMFfGva-2" value="Admin" style="rounded=1;whiteSpace=wrap;html=1;" vertex="1" parent="1">
          <mxGeometry x="160" y="190" width="100" height="50" as="geometry" />
        </mxCell>
        <mxCell id="Jfc9MSG-SvQLUjMFfGva-3" value="Add Books" style="ellipse;whiteSpace=wrap;html=1;" vertex="1" parent="1">
          <mxGeometry x="450" y="110" width="120" height="40" as="geometry" />
        </mxCell>
        <mxCell id="Jfc9MSG-SvQLUjMFfGva-4" value="Edit Books" style="ellipse;whiteSpace=wrap;html=1;" vertex="1" parent="1">
          <mxGeometry x="460" y="160" width="120" height="40" as="geometry" />
        </mxCell>
        <mxCell id="Jfc9MSG-SvQLUjMFfGva-5" value="Delete Books" style="ellipse;whiteSpace=wrap;html=1;" vertex="1" parent="1">
          <mxGeometry x="460" y="210" width="120" height="40" as="geometry" />
        </mxCell>
        <mxCell id="Jfc9MSG-SvQLUjMFfGva-6" value="View&amp;nbsp; all Books" style="ellipse;whiteSpace=wrap;html=1;" vertex="1" parent="1">
          <mxGeometry x="425" y="270" width="120" height="40" as="geometry" />
        </mxCell>
        <mxCell id="Jfc9MSG-SvQLUjMFfGva-7" value="View Orders" style="ellipse;whiteSpace=wrap;html=1;" vertex="1" parent="1">
          <mxGeometry x="365" y="320" width="120" height="40" as="geometry" />
        </mxCell>
        <mxCell id="Jfc9MSG-SvQLUjMFfGva-8" value="Register" style="ellipse;whiteSpace=wrap;html=1;" vertex="1" parent="1">
          <mxGeometry x="305" y="10" width="120" height="40" as="geometry" />
        </mxCell>
        <mxCell id="Jfc9MSG-SvQLUjMFfGva-9" value="" style="endArrow=none;html=1;rounded=0;exitX=1;exitY=0.5;exitDx=0;exitDy=0;entryX=0.5;entryY=1;entryDx=0;entryDy=0;" edge="1" parent="1" source="Jfc9MSG-SvQLUjMFfGva-2" target="Jfc9MSG-SvQLUjMFfGva-8">
          <mxGeometry width="50" height="50" relative="1" as="geometry">
            <mxPoint x="400" y="280" as="sourcePoint" />
            <mxPoint x="450" y="230" as="targetPoint" />
          </mxGeometry>
        </mxCell>
        <mxCell id="Jfc9MSG-SvQLUjMFfGva-11" value="" style="endArrow=none;html=1;rounded=0;exitX=1;exitY=0.5;exitDx=0;exitDy=0;" edge="1" parent="1" source="Jfc9MSG-SvQLUjMFfGva-2" target="Jfc9MSG-SvQLUjMFfGva-1">
          <mxGeometry width="50" height="50" relative="1" as="geometry">
            <mxPoint x="400" y="280" as="sourcePoint" />
            <mxPoint x="450" y="230" as="targetPoint" />
          </mxGeometry>
        </mxCell>
        <mxCell id="Jfc9MSG-SvQLUjMFfGva-12" value="" style="endArrow=none;html=1;rounded=0;entryX=0;entryY=0.5;entryDx=0;entryDy=0;" edge="1" parent="1" target="Jfc9MSG-SvQLUjMFfGva-3">
          <mxGeometry width="50" height="50" relative="1" as="geometry">
            <mxPoint x="260" y="220" as="sourcePoint" />
            <mxPoint x="450" y="230" as="targetPoint" />
          </mxGeometry>
        </mxCell>
        <mxCell id="Jfc9MSG-SvQLUjMFfGva-14" value="" style="endArrow=none;html=1;rounded=0;entryX=0.025;entryY=0.725;entryDx=0;entryDy=0;entryPerimeter=0;" edge="1" parent="1" target="Jfc9MSG-SvQLUjMFfGva-4">
          <mxGeometry width="50" height="50" relative="1" as="geometry">
            <mxPoint x="260" y="220" as="sourcePoint" />
            <mxPoint x="450" y="230" as="targetPoint" />
          </mxGeometry>
        </mxCell>
        <mxCell id="Jfc9MSG-SvQLUjMFfGva-15" value="" style="endArrow=none;html=1;rounded=0;entryX=0;entryY=0.5;entryDx=0;entryDy=0;" edge="1" parent="1" target="Jfc9MSG-SvQLUjMFfGva-5">
          <mxGeometry width="50" height="50" relative="1" as="geometry">
            <mxPoint x="260" y="220" as="sourcePoint" />
            <mxPoint x="450" y="230" as="targetPoint" />
          </mxGeometry>
        </mxCell>
        <mxCell id="Jfc9MSG-SvQLUjMFfGva-16" value="" style="endArrow=none;html=1;rounded=0;entryX=0.208;entryY=0;entryDx=0;entryDy=0;entryPerimeter=0;" edge="1" parent="1" target="Jfc9MSG-SvQLUjMFfGva-6">
          <mxGeometry width="50" height="50" relative="1" as="geometry">
            <mxPoint x="260" y="220" as="sourcePoint" />
            <mxPoint x="450" y="230" as="targetPoint" />
          </mxGeometry>
        </mxCell>
        <mxCell id="Jfc9MSG-SvQLUjMFfGva-17" value="" style="endArrow=none;html=1;rounded=0;entryX=0.375;entryY=0;entryDx=0;entryDy=0;entryPerimeter=0;" edge="1" parent="1" target="Jfc9MSG-SvQLUjMFfGva-7">
          <mxGeometry width="50" height="50" relative="1" as="geometry">
            <mxPoint x="260" y="220" as="sourcePoint" />
            <mxPoint x="450" y="230" as="targetPoint" />
          </mxGeometry>
        </mxCell>
        <mxCell id="Jfc9MSG-SvQLUjMFfGva-18" value="Logout" style="ellipse;whiteSpace=wrap;html=1;" vertex="1" parent="1">
          <mxGeometry x="290" y="380" width="120" height="40" as="geometry" />
        </mxCell>
        <mxCell id="Jfc9MSG-SvQLUjMFfGva-19" value="" style="endArrow=none;html=1;rounded=0;entryX=0.45;entryY=-0.04;entryDx=0;entryDy=0;entryPerimeter=0;" edge="1" parent="1" target="Jfc9MSG-SvQLUjMFfGva-18">
          <mxGeometry width="50" height="50" relative="1" as="geometry">
            <mxPoint x="260" y="215" as="sourcePoint" />
            <mxPoint x="290" y="320" as="targetPoint" />
          </mxGeometry>
        </mxCell>
        <mxCell id="Jfc9MSG-SvQLUjMFfGva-20" value="" style="shape=umlActor;verticalLabelPosition=bottom;verticalAlign=top;html=1;outlineConnect=0;" vertex="1" parent="1">
          <mxGeometry x="195" y="110" width="30" height="60" as="geometry" />
        </mxCell>
        <mxCell id="Jfc9MSG-SvQLUjMFfGva-29" value="Register" style="ellipse;whiteSpace=wrap;html=1;" vertex="1" parent="1">
          <mxGeometry x="365" y="530" width="120" height="40" as="geometry" />
        </mxCell>
        <mxCell id="Jfc9MSG-SvQLUjMFfGva-30" value="Login" style="ellipse;whiteSpace=wrap;html=1;" vertex="1" parent="1">
          <mxGeometry x="450" y="590" width="105" height="40" as="geometry" />
        </mxCell>
        <mxCell id="Jfc9MSG-SvQLUjMFfGva-31" value="View Books" style="ellipse;whiteSpace=wrap;html=1;" vertex="1" parent="1">
          <mxGeometry x="485" y="640" width="120" height="40" as="geometry" />
        </mxCell>
        <mxCell id="Jfc9MSG-SvQLUjMFfGva-32" value="Add To Cart" style="ellipse;whiteSpace=wrap;html=1;" vertex="1" parent="1">
          <mxGeometry x="500" y="695" width="120" height="35" as="geometry" />
        </mxCell>
        <mxCell id="Jfc9MSG-SvQLUjMFfGva-33" value="View Used Books" style="ellipse;whiteSpace=wrap;html=1;" vertex="1" parent="1">
          <mxGeometry x="520" y="735" width="120" height="40" as="geometry" />
        </mxCell>
        <mxCell id="Jfc9MSG-SvQLUjMFfGva-34" value="Sell Used Books" style="ellipse;whiteSpace=wrap;html=1;" vertex="1" parent="1">
          <mxGeometry x="530" y="780" width="120" height="40" as="geometry" />
        </mxCell>
        <mxCell id="Jfc9MSG-SvQLUjMFfGva-37" value="Edit profile" style="ellipse;whiteSpace=wrap;html=1;" vertex="1" parent="1">
          <mxGeometry x="500" y="880" width="120" height="40" as="geometry" />
        </mxCell>
        <mxCell id="Jfc9MSG-SvQLUjMFfGva-38" value="Search" style="ellipse;whiteSpace=wrap;html=1;" vertex="1" parent="1">
          <mxGeometry x="340" y="890" width="120" height="40" as="geometry" />
        </mxCell>
        <mxCell id="Jfc9MSG-SvQLUjMFfGva-39" value="" style="endArrow=none;html=1;rounded=0;exitX=1;exitY=0.25;exitDx=0;exitDy=0;" edge="1" parent="1" target="Jfc9MSG-SvQLUjMFfGva-29">
          <mxGeometry width="50" height="50" relative="1" as="geometry">
            <mxPoint x="250" y="705" as="sourcePoint" />
            <mxPoint x="450" y="840" as="targetPoint" />
          </mxGeometry>
        </mxCell>
        <mxCell id="Jfc9MSG-SvQLUjMFfGva-40" value="" style="endArrow=none;html=1;rounded=0;exitX=1;exitY=0.25;exitDx=0;exitDy=0;entryX=0;entryY=0.5;entryDx=0;entryDy=0;" edge="1" parent="1" target="Jfc9MSG-SvQLUjMFfGva-30">
          <mxGeometry width="50" height="50" relative="1" as="geometry">
            <mxPoint x="250" y="705" as="sourcePoint" />
            <mxPoint x="430" y="660" as="targetPoint" />
          </mxGeometry>
        </mxCell>
        <mxCell id="Jfc9MSG-SvQLUjMFfGva-41" value="" style="endArrow=none;html=1;rounded=0;exitX=1;exitY=0.25;exitDx=0;exitDy=0;entryX=0;entryY=0.5;entryDx=0;entryDy=0;" edge="1" parent="1" target="Jfc9MSG-SvQLUjMFfGva-31">
          <mxGeometry width="50" height="50" relative="1" as="geometry">
            <mxPoint x="250" y="705" as="sourcePoint" />
            <mxPoint x="450" y="810" as="targetPoint" />
          </mxGeometry>
        </mxCell>
        <mxCell id="Jfc9MSG-SvQLUjMFfGva-42" value="" style="endArrow=none;html=1;rounded=0;exitX=1;exitY=0.25;exitDx=0;exitDy=0;entryX=0;entryY=0.5;entryDx=0;entryDy=0;" edge="1" parent="1" target="Jfc9MSG-SvQLUjMFfGva-32">
          <mxGeometry width="50" height="50" relative="1" as="geometry">
            <mxPoint x="250" y="705" as="sourcePoint" />
            <mxPoint x="450" y="810" as="targetPoint" />
          </mxGeometry>
        </mxCell>
        <mxCell id="Jfc9MSG-SvQLUjMFfGva-43" value="" style="endArrow=none;html=1;rounded=0;exitX=1;exitY=0.25;exitDx=0;exitDy=0;entryX=0;entryY=0.5;entryDx=0;entryDy=0;" edge="1" parent="1" target="Jfc9MSG-SvQLUjMFfGva-33">
          <mxGeometry width="50" height="50" relative="1" as="geometry">
            <mxPoint x="250" y="705" as="sourcePoint" />
            <mxPoint x="450" y="810" as="targetPoint" />
          </mxGeometry>
        </mxCell>
        <mxCell id="Jfc9MSG-SvQLUjMFfGva-44" value="" style="endArrow=none;html=1;rounded=0;exitX=1;exitY=0.25;exitDx=0;exitDy=0;entryX=0;entryY=0.5;entryDx=0;entryDy=0;" edge="1" parent="1" target="Jfc9MSG-SvQLUjMFfGva-34">
          <mxGeometry width="50" height="50" relative="1" as="geometry">
            <mxPoint x="250" y="705" as="sourcePoint" />
            <mxPoint x="450" y="810" as="targetPoint" />
          </mxGeometry>
        </mxCell>
        <mxCell id="Jfc9MSG-SvQLUjMFfGva-35" value="View Sell Used History" style="ellipse;whiteSpace=wrap;html=1;" vertex="1" parent="1">
          <mxGeometry x="510" y="830" width="210" height="40" as="geometry" />
        </mxCell>
        <mxCell id="Jfc9MSG-SvQLUjMFfGva-47" value="" style="endArrow=none;html=1;rounded=0;exitX=1;exitY=0.25;exitDx=0;exitDy=0;entryX=0;entryY=0.34;entryDx=0;entryDy=0;entryPerimeter=0;" edge="1" parent="1" target="Jfc9MSG-SvQLUjMFfGva-35">
          <mxGeometry width="50" height="50" relative="1" as="geometry">
            <mxPoint x="250" y="705" as="sourcePoint" />
            <mxPoint x="450" y="810" as="targetPoint" />
          </mxGeometry>
        </mxCell>
        <mxCell id="Jfc9MSG-SvQLUjMFfGva-48" value="" style="endArrow=none;html=1;rounded=0;exitX=1;exitY=0.25;exitDx=0;exitDy=0;entryX=0;entryY=0.5;entryDx=0;entryDy=0;" edge="1" parent="1" target="Jfc9MSG-SvQLUjMFfGva-37">
          <mxGeometry width="50" height="50" relative="1" as="geometry">
            <mxPoint x="250" y="705" as="sourcePoint" />
            <mxPoint x="420" y="930" as="targetPoint" />
          </mxGeometry>
        </mxCell>
        <mxCell id="Jfc9MSG-SvQLUjMFfGva-52" value="" style="endArrow=none;html=1;rounded=0;exitX=1;exitY=0.25;exitDx=0;exitDy=0;entryX=0.45;entryY=0.02;entryDx=0;entryDy=0;entryPerimeter=0;" edge="1" parent="1" target="Jfc9MSG-SvQLUjMFfGva-38">
          <mxGeometry width="50" height="50" relative="1" as="geometry">
            <mxPoint x="250" y="705" as="sourcePoint" />
            <mxPoint x="450" y="810" as="targetPoint" />
          </mxGeometry>
        </mxCell>
        <mxCell id="Jfc9MSG-SvQLUjMFfGva-59" value="" style="shape=umlActor;verticalLabelPosition=bottom;verticalAlign=top;html=1;outlineConnect=0;" vertex="1" parent="1">
          <mxGeometry x="175" y="610" width="30" height="60" as="geometry" />
        </mxCell>
        <mxCell id="Jfc9MSG-SvQLUjMFfGva-63" value="User" style="rounded=1;whiteSpace=wrap;html=1;" vertex="1" parent="1">
          <mxGeometry x="130" y="682.5" width="120" height="47.5" as="geometry" />
        </mxCell>
      </root>
    </mxGraphModel>
  </diagram>
</mxfile>
